<?xml version="1.0" standalone="no"?>
<!DOCTYPE svg PUBLIC "-//W3C//DTD SVG 1.1//EN" "http://www.w3.org/Graphics/SVG/1.1/DTD/svg11.dtd">
<!--Generator: Xara Designer (www.xara.com), SVG filter version: 6.3.0.23-->
<svg fill="none" fill-rule="evenodd" stroke="black" stroke-width="0.501" stroke-linejoin="bevel" stroke-miterlimit="10" font-family="Times New Roman" font-size="16" style="font-variant-ligatures:none" xmlns:xlink="http://www.w3.org/1999/xlink" xmlns="http://www.w3.org/2000/svg" version="1.1" overflow="visible" width="768pt" height="768pt" viewBox="0 -768 768 768">
 <defs>
	</defs>
 <g id="Layer 1" transform="scale(1 -1)">
  <g id="Group" stroke-linejoin="round" stroke="none" stroke-width="2.784">
   <g id="Group_1" fill-rule="nonzero" stroke-linecap="round" fill="#bf6200">
    <g id="Group_2">
     <path d="M 599.555,279.912 C 599.567,239.726 591.082,204.829 574.112,175.199 C 557.154,145.58 531.577,122.476 497.393,105.907 C 463.198,89.338 424.448,81.054 381.123,81.054 C 336.761,81.054 298.391,84.127 266.033,90.251 C 233.675,96.387 201.706,107.02 170.128,122.153 L 170.128,272.474 L 188.133,272.474 C 217.095,253.166 246.135,238.546 275.23,228.636 C 304.337,218.714 335.982,213.759 370.166,213.759 C 391.044,213.759 405.397,215.975 413.224,220.418 C 421.052,224.85 424.961,232.032 424.972,241.942 C 424.961,250.304 422.355,256.896 417.144,261.717 C 411.922,266.55 402.134,272.095 387.781,278.353 C 373.428,284.622 349.288,293.886 315.36,306.145 C 277,320.242 247.838,335.241 227.862,351.164 C 207.909,367.075 192.899,386.127 182.855,408.319 C 172.8,430.5 167.778,457.257 167.778,488.568 C 167.778,524.066 176.787,556.223 194.792,585.063 C 212.797,613.891 238.362,636.862 271.511,653.954 C 304.659,671.057 341.327,679.598 381.512,679.598 C 411.788,679.598 443.634,676.213 477.027,669.421 C 510.443,662.639 541.632,653.242 570.594,641.238 L 570.594,501.484 L 553.368,501.484 C 529.361,517.663 504.898,529.411 479.967,536.715 C 455.047,544.02 427.31,547.672 396.778,547.672 C 377.983,547.672 363.507,545.456 353.33,541.024 C 343.153,536.582 338.064,528.486 338.064,516.75 C 338.064,509.435 339.957,503.567 343.743,499.135 C 347.529,494.703 354.9,490.004 365.857,485.038 C 376.825,480.083 402.657,470.429 443.367,456.076 C 481.726,442.77 511.412,428.284 532.423,412.617 C 553.435,396.961 569.881,378.299 581.751,356.642 C 593.632,334.974 599.567,309.397 599.555,279.912 Z" marker-start="none" marker-end="none"/>
    </g>
   </g>
   <path d="M 270.147,111.97 C 247.378,116.287 224.727,122.993 202.186,132.134 L 192.233,136.536 L 192.234,243.84 L 198.706,239.79 C 221.617,226.389 244.752,215.663 268.1,207.711 C 299.744,196.924 333.827,191.653 370.166,191.653 C 390.85,191.653 410.606,193.512 424.126,201.187 C 439.656,209.98 447.059,225.067 447.078,241.944 C 447.06,255.279 442.696,268.192 432.157,277.942 C 423.987,285.504 411.176,292.268 396.622,298.613 C 381.558,305.193 356.824,314.667 322.928,326.915 C 285.679,340.603 258.992,354.619 241.642,368.448 C 224.288,382.287 211.524,398.587 202.991,417.439 C 194.55,436.061 189.884,459.535 189.884,488.568 C 189.884,520.113 197.827,548.182 213.542,573.354 C 229.241,598.49 251.679,618.857 281.644,634.307 C 311.418,649.669 344.569,657.492 381.512,657.492 C 410.142,657.492 440.506,654.29 472.625,647.757 C 496.734,642.864 519.533,636.577 541.045,628.924 L 548.488,626.061 L 548.488,530.581 L 546.308,531.943 C 526.737,543.218 506.695,551.919 486.183,557.928 C 458.926,565.918 429.054,569.778 396.778,569.778 C 376.763,569.778 358.751,567.496 344.495,561.287 C 325.706,553.086 315.958,536.734 315.958,516.75 C 315.958,505.549 318.929,494.147 326.934,484.776 C 334.077,476.415 345.308,470.08 356.743,464.897 C 368.761,459.468 395.57,449.487 436.069,435.209 C 473.38,422.266 500.724,408.678 519.211,394.892 C 537.84,381.012 552.113,364.722 562.366,346.015 C 572.145,328.181 577.459,306.404 577.448,279.913 C 577.46,242.893 569.669,211.922 554.928,186.184 C 540.427,160.855 518.399,140.654 487.752,125.8 C 456.958,110.879 421.577,103.16 381.123,103.16 C 337.703,103.16 300.776,106.173 270.147,111.97 Z" fill="#d99a57" marker-start="none" marker-end="none"/>
   <path d="M 504.196,218.248 L 506.036,228.399 C 506.572,232.891 506.84,237.418 506.846,241.95 C 506.81,268.92 497.461,298.949 472.75,321.81 C 456.466,336.881 434.809,347.165 420.527,353.393 C 403.539,360.812 377.202,370.854 343.392,383.07 C 309.144,395.656 289.149,407.013 278.901,415.182 C 268.572,423.418 261.881,432.276 257.434,442.1 C 253.356,451.097 249.652,465.695 249.652,488.568 C 249.652,498.998 250.917,508.467 253.373,517.235 L 256.868,526.919 L 256.19,516.75 C 256.19,495.044 262.077,468.681 281.49,445.956 C 297.813,426.847 320.069,415.899 332.103,410.445 C 347.145,403.649 377.613,392.444 416.338,378.791 C 450.817,366.831 471.827,355.67 483.493,346.972 C 495.677,337.893 504.074,328.016 509.957,317.284 C 514.051,309.817 517.688,298.314 517.68,279.916 C 517.686,258.571 514.362,241.784 509.023,228.306 L 504.196,218.248 Z" fill="#f2dbc2" marker-start="none" marker-end="none"/>
  </g>
 </g>
</svg>
